<svg xmlns="http://www.w3.org/2000/svg" width="40" height="40" viewBox="0 0 40 40">
  <g fill="none" fill-rule="evenodd" transform="translate(2.5 0.5)">
    <polygon fill="#202A5A" points="32.593 9.918 17.75 1.298 1.548 10.37 1.548 28.518 17.75 37.593 33.305 28.518 33.305 10.37 33.305 9.593"/>
    <polygon fill="#2C448A" points="1.548 10.37 17.75 19.445 33.305 10.37 17.75 1.298"/>
    <polygon fill="#283A79" points="33.305 9.593 28.12 12.315 28.055 13.483 17.75 19.445 17.75 37.593 33.305 28.518"/>
    <polygon fill="#202A5A" points="1.548 10.37 1.548 28.518 17.75 37.593 17.75 19.445"/>
    <polygon fill="#3558A7" points="0.25 28.518 0.25 22.685 17.75 33.055 17.75 38.89"/>
    <polygon fill="#3558A7" points="0.25 10.37 0.25 13.61 17.75 23.983 17.75 20.74"/>
    <polygon fill="#416FB5" points="34.603 28.518 34.603 25.278 20.408 19.12 17.75 20.74 17.75 23.918 26.37 27.74 17.75 33.055 17.75 38.89"/>
    <polygon fill="#477FC1" points="26.37 27.74 25.333 27.353 17.75 31.76 1.548 22.685 1.548 21.908 0.25 22.685 17.75 33.055"/>
    <polygon fill="#477FC1" points="7.898 11.668 17.75 5.833 28.12 12.315 33.305 9.593 17.75 0 0.25 10.37 17.75 20.74 20.408 19.12"/>
    <polygon fill="#202A5A" points="28.055 13.483 28.12 12.315 17.75 5.833 7.898 11.668 9 12.315 17.75 7.13"/>
  </g>
</svg>
